<svg xmlns="http://www.w3.org/2000/svg" xmlns:xlink="http://www.w3.org/1999/xlink" width="150" height="147" viewBox="0 0 50 47">
  <defs>
    <linearGradient id="linear-gradient" x1="1" y1="1" x2="0.102" gradientUnits="objectBoundingBox">
      <stop offset="0" stop-color="#794fec"/>
      <stop offset="0.565" stop-color="#794fec"/>
      <stop offset="1" stop-color="#794fec" stop-opacity="0"/>
    </linearGradient>
  </defs>
  <g id="Group_11" data-name="Group 11" transform="translate(-8 -9)">
    <text id="RAID" transform="translate(17 52)" fill="#794fec" font-size="14" font-family="Roboto-Black, Roboto" font-weight="800"><tspan x="0" y="0">RAID</tspan></text>
    <path id="Path_31" data-name="Path 31" d="M-33.47-18.371l11.949-.761S-9-18.278.4-11.369A47.065,47.065,0,0,1,8.688-3.231,76.739,76.739,0,0,1,16.53,8.506H2.984S-.232-2.728-5.921-9.162a27.812,27.812,0,0,0-13.85-8.068h-2.511s2.037.868,4.875,2.409h4.2l1.865,1.045s-3.955-.021-3.792.083A33.406,33.406,0,0,1-8.856-8.532h3.638l1.476,2.18s-2.076-.014-2.864.045-.28,0-.28,0A26.042,26.042,0,0,1-3.747-.092l.04.074H.053L.836,2.158H-3.039V2.117A35.375,35.375,0,0,1-1.814,8.5H-15.726S-14.8-3.2-19.239-9.924-33.47-18.371-33.47-18.371Z" transform="translate(41.47 28.132)" fill="url(#linear-gradient)"/>
  </g>
</svg>
